<?xml version="1.0" encoding="utf-8"?>
<!-- Generator: Adobe Illustrator 21.0.0, SVG Export Plug-In . SVG Version: 6.00 Build 0)  -->
<svg version="1.1" xmlns="http://www.w3.org/2000/svg" xmlns:xlink="http://www.w3.org/1999/xlink" x="0px" y="0px"
	 viewBox="0 0 125 40" enable-background="new 0 0 125 40" xml:space="preserve">
<g id="bg" display="none">
	<rect display="inline" fill="#FFFFFF" width="125" height="40"/>
</g>
<g id="icons">
	<g>
		<g>
			<path fill="#FFFFFF" d="M27.37,28.277L27.37,28.277c0.338-0.549,0.162-1.266-0.387-1.604c-4.934-3.015-11.049-3.716-18.179-2.086
				c-0.628,0.143-1.02,0.769-0.878,1.396c0.144,0.628,0.77,1.022,1.398,0.877c6.515-1.487,12.048-0.881,16.443,1.805
				C26.316,29.002,27.035,28.829,27.37,28.277z"/>
			<path fill="#FFFFFF" d="M32.257,17.263c0.492-0.83,0.219-1.905-0.612-2.399c-6.945-4.123-17.937-4.511-24.548-2.504
				c-0.925,0.281-1.446,1.258-1.167,2.184c0.28,0.925,1.259,1.447,2.183,1.167c5.761-1.749,15.712-1.419,21.746,2.164
				C30.688,18.369,31.765,18.095,32.257,17.263z"/>
			<path fill="#FFFFFF" d="M29.189,21.176c-5.778-3.551-14.232-4.549-21.029-2.487c-0.771,0.235-1.207,1.048-0.976,1.82
				c0.234,0.77,1.049,1.205,1.82,0.972c5.95-1.806,13.628-0.91,18.658,2.181c0.686,0.422,1.434,0.206,2.014-0.48v0.001
				C30.257,22.497,29.874,21.598,29.189,21.176z"/>
			<path fill="#24CF5F" d="M18.646,1.284L18.646,1.284C8.197,1.283,0,9.663,0,19.999c0,10.338,8.415,18.717,18.752,18.717
				c10.338,0,18.663-8.379,18.663-18.717C37.415,9.664,29.096,1.284,18.646,1.284z M9.323,26.861
				c-0.628,0.145-1.254-0.249-1.398-0.877c-0.142-0.628,0.25-1.254,0.878-1.396c7.13-1.63,13.245-0.929,18.179,2.086
				c0.549,0.338,0.725,1.055,0.386,1.605l0.001-0.001c-0.336,0.552-1.055,0.724-1.604,0.389
				C21.371,25.98,15.838,25.373,9.323,26.861z M29.676,23.183L29.676,23.183c-0.581,0.686-1.329,0.901-2.015,0.48
				c-5.029-3.091-12.704-3.987-18.654-2.181c-0.772,0.233-1.589-0.202-1.823-0.972c-0.231-0.772,0.202-1.586,0.973-1.82
				c6.797-2.062,15.254-1.064,21.033,2.487C29.875,21.598,30.257,22.497,29.676,23.183z M29.858,17.875
				c-6.034-3.583-15.985-3.912-21.746-2.164c-0.924,0.28-1.903-0.242-2.183-1.167c-0.279-0.925,0.242-1.903,1.167-2.184
				c6.611-2.008,17.603-1.619,24.548,2.504c0.831,0.494,1.104,1.568,0.612,2.399C31.765,18.095,30.688,18.369,29.858,17.875z"/>
		</g>
		<path fill="#24CF5F" d="M51.112,18.562c-3.23-0.771-3.807-1.312-3.807-2.448c0-1.074,1.012-1.796,2.515-1.796
			c1.457,0,2.902,0.549,4.417,1.679c0.046,0.034,0.103,0.048,0.16,0.039c0.057-0.009,0.105-0.04,0.14-0.086l1.578-2.224
			c0.064-0.092,0.048-0.219-0.04-0.288c-1.803-1.447-3.833-2.151-6.206-2.151c-3.49,0-5.927,2.095-5.927,5.09
			c0,3.213,2.102,4.351,5.736,5.229c3.093,0.712,3.614,1.309,3.614,2.376c0,1.182-1.056,1.917-2.753,1.917
			c-1.887,0-3.425-0.636-5.146-2.126c-0.043-0.037-0.101-0.054-0.156-0.051c-0.056,0.005-0.109,0.031-0.145,0.075l-1.769,2.105
			c-0.074,0.087-0.064,0.217,0.02,0.293c2.003,1.788,4.466,2.733,7.123,2.733c3.76,0,6.19-2.055,6.19-5.234
			c0.006-2.685-1.601-4.171-5.536-5.128L51.112,18.562z"/>
		<path fill="#24CF5F" d="M65.162,15.374c-1.63,0-2.967,0.642-4.068,1.958v-1.481c0-0.117-0.096-0.212-0.212-0.212h-2.893
			c-0.117,0-0.211,0.095-0.211,0.212v16.45c0,0.116,0.094,0.212,0.211,0.212h2.893c0.117,0,0.212-0.096,0.212-0.212V27.11
			c1.102,1.237,2.439,1.841,4.068,1.841c3.028,0,6.094-2.331,6.094-6.787c0.005-4.457-3.062-6.789-6.091-6.789H65.162z
			 M67.891,22.164c0,2.269-1.398,3.853-3.4,3.853c-1.978,0-3.47-1.656-3.47-3.853c0-2.197,1.492-3.853,3.47-3.853
			C66.461,18.311,67.891,19.931,67.891,22.164L67.891,22.164z"/>
		<path fill="#24CF5F" d="M79.113,15.374c-3.9,0-6.955,3.003-6.955,6.838c0,3.793,3.034,6.764,6.908,6.764
			c3.913,0,6.978-2.993,6.978-6.813c0-3.807-3.044-6.788-6.931-6.788V15.374z M79.113,26.039c-2.074,0-3.638-1.667-3.638-3.876
			c0-2.219,1.51-3.829,3.591-3.829c2.088,0,3.662,1.666,3.662,3.878C82.728,24.43,81.208,26.039,79.113,26.039L79.113,26.039z"/>
		<path fill="#24CF5F" d="M94.372,15.64h-3.185v-3.256c0-0.117-0.095-0.212-0.211-0.212h-2.894c-0.118,0-0.213,0.095-0.213,0.212
			v3.256h-1.39c-0.117,0-0.211,0.095-0.211,0.212v2.487c0,0.116,0.094,0.212,0.211,0.212h1.39v6.435c0,2.6,1.295,3.918,3.848,3.918
			c1.038,0,1.899-0.214,2.711-0.674c0.066-0.037,0.106-0.108,0.106-0.184v-2.368c0-0.073-0.037-0.143-0.1-0.181
			c-0.063-0.04-0.143-0.042-0.207-0.01c-0.556,0.28-1.096,0.41-1.698,0.41c-0.929,0-1.342-0.421-1.342-1.366v-5.98h3.185
			c0.116,0,0.211-0.095,0.211-0.212v-2.487c0.005-0.118-0.089-0.212-0.208-0.212L94.372,15.64z"/>
		<path fill="#24CF5F" d="M105.466,15.652v-0.4c0-1.176,0.452-1.7,1.464-1.7c0.603,0,1.088,0.119,1.63,0.3
			c0.067,0.021,0.136,0.011,0.191-0.029c0.056-0.04,0.087-0.103,0.087-0.172v-2.438c0-0.094-0.061-0.176-0.15-0.203
			c-0.573-0.17-1.306-0.345-2.405-0.345c-2.673,0-4.085,1.505-4.085,4.351v0.612h-1.391c-0.116,0-0.211,0.096-0.211,0.212v2.499
			c0,0.116,0.096,0.212,0.211,0.212h1.391v9.926c0,0.116,0.094,0.211,0.211,0.211h2.894c0.117,0,0.212-0.095,0.212-0.211v-9.926
			h2.701l4.139,9.923c-0.47,1.043-0.931,1.25-1.562,1.25c-0.511,0-1.048-0.152-1.597-0.452c-0.053-0.029-0.113-0.034-0.168-0.016
			c-0.056,0.019-0.102,0.06-0.125,0.114l-0.981,2.151c-0.047,0.102-0.008,0.221,0.091,0.274c1.023,0.555,1.948,0.791,3.091,0.791
			c2.135,0,3.316-0.995,4.358-3.673l5.021-12.972c0.024-0.065,0.018-0.139-0.023-0.197c-0.04-0.058-0.104-0.092-0.173-0.092h-3.014
			c-0.09,0-0.17,0.057-0.2,0.142l-3.086,8.814l-3.379-8.82c-0.031-0.082-0.112-0.136-0.198-0.136h-4.944V15.652z"/>
		<path fill="#24CF5F" d="M99.035,15.64h-2.894c-0.117,0-0.213,0.095-0.213,0.212v12.625c0,0.116,0.096,0.211,0.213,0.211h2.894
			c0.116,0,0.212-0.095,0.212-0.211V15.853C99.247,15.736,99.153,15.64,99.035,15.64L99.035,15.64z"/>
		<path fill="#24CF5F" d="M97.603,9.891c-1.146,0-2.076,0.929-2.076,2.075c0,1.147,0.93,2.076,2.076,2.076
			c1.146,0,2.075-0.929,2.075-2.076C99.678,10.819,98.75,9.891,97.603,9.891L97.603,9.891z"/>
		<path fill="#24CF5F" d="M122.953,19.699c-1.146,0-2.036-0.92-2.036-2.037c0-1.117,0.903-2.047,2.047-2.047
			c1.146,0,2.036,0.92,2.036,2.036C125,18.767,124.097,19.699,122.953,19.699L122.953,19.699z M122.965,15.817
			c-1.044,0-1.832,0.829-1.832,1.845c0,1.015,0.783,1.833,1.821,1.833c1.042,0,1.834-0.829,1.834-1.845
			C124.787,16.635,124.002,15.817,122.965,15.817L122.965,15.817z M123.416,17.86l0.576,0.806h-0.486l-0.519-0.739h-0.446v0.739
			h-0.405v-2.137h0.952c0.496,0,0.824,0.254,0.824,0.682c0.001,0.35-0.202,0.565-0.495,0.649H123.416z M123.072,16.896h-0.531v0.676
			h0.531c0.265,0,0.421-0.13,0.421-0.339C123.493,17.013,123.335,16.896,123.072,16.896L123.072,16.896z"/>
	</g>
</g>
</svg>
